<svg xmlns="http://www.w3.org/2000/svg" xmlns:xlink="http://www.w3.org/1999/xlink" viewBox="0 0 1080 1080"><defs><style>.cls-1{fill:#191919;}.cls-2{fill:url(#linear-gradient);}</style><linearGradient id="linear-gradient" x1="185.59" y1="477.4" x2="903.48" y2="669.76" gradientUnits="userSpaceOnUse"><stop offset="0" stop-color="#eb2d7c"/><stop offset="1" stop-color="#65308f"/></linearGradient></defs><g id="Layer_2" data-name="Layer 2"><g id="vol2"><circle class="cls-1" cx="540" cy="540" r="540"/><path class="cls-2" d="M948.92,480.92C936.07,433,823.28,419,673.14,440.08l-90-244.78c-14.77-40.17-71.58-40.17-86.34,0L379.26,515.23C221.94,574.08,117.35,648.77,131.09,700.06c9.32,34.79,71.2,51.68,161.76,50.29L255.14,853a46,46,0,0,0,43.17,61.86h15.82l62.51-170.1C436,738,502.25,725.5,571.23,707c37.13-10,72.73-21,106.22-32.81l88.43,240.62H781.7A46,46,0,0,0,824.87,853L749,646.51C879,591.3,961.2,526.75,948.92,480.92ZM193.57,682.7c-4.41-16.44,62.27-71,168.17-119.79L314.19,692.29C243.29,698.78,196.86,695,193.57,682.7ZM540,300.2l56.28,153.13C567.85,459.11,538.57,466,508.78,474q-18.46,4.95-36.39,10.24Zm15.24,347.2c-55,14.74-107.8,25.87-155.22,33.68l57.44-156.3c19.33-6.54,39.38-12.66,60-18.2,31.1-8.33,61.66-14.82,91.07-19.76l47.78,130C624.68,627.54,590.75,637.89,555.25,647.4Zm173.17-56.9L686.68,476.94c113-9.65,195.14,4,199.46,20.18C890.33,512.74,827.3,551.33,728.42,590.5Z"/></g></g></svg>